<?xml version="1.0" standalone="no"?>
<!DOCTYPE svg PUBLIC "-//W3C//DTD SVG 20010904//EN"
 "http://www.w3.org/TR/2001/REC-SVG-20010904/DTD/svg10.dtd">
<svg version="1.0" xmlns="http://www.w3.org/2000/svg"
 width="512.000000pt" height="512.000000pt" viewBox="0 0 512.000000 512.000000"
 preserveAspectRatio="xMidYMid meet">

<g transform="translate(0.000000,512.000000) scale(0.100000,-0.100000)"
fill="#000000" stroke="none">
<path d="M4152 3679 l-454 -151 7 -26 c4 -15 8 -33 9 -41 1 -9 -65 -36 -209
-84 l-209 -70 -151 32 c-82 18 -189 42 -236 52 l-86 20 -30 97 -30 97 -104 12
c-57 6 -213 22 -347 34 l-243 23 -307 -102 c-169 -56 -310 -102 -314 -102 -4
0 -6 12 -5 26 2 27 -2 28 -446 176 -247 83 -450 148 -452 147 -13 -15 -485
-1463 -479 -1469 8 -7 881 -300 895 -300 3 0 14 27 24 60 l18 61 38 -37 c21
-21 50 -62 65 -91 46 -95 129 -139 248 -130 82 5 111 -5 125 -44 31 -88 127
-151 230 -150 34 0 66 3 71 6 20 13 51 -7 66 -43 43 -105 187 -177 284 -143
41 14 65 1 84 -42 36 -88 129 -147 226 -146 30 0 64 4 75 8 14 6 53 -9 144
-53 115 -56 130 -61 190 -61 48 1 77 7 106 22 76 40 135 123 135 189 0 24 3
26 28 20 64 -16 125 -18 167 -6 84 24 174 127 175 202 l0 26 73 -5 c90 -7 135
6 189 55 45 41 75 93 84 149 l6 39 51 0 c70 0 122 19 169 62 73 66 104 167 75
250 -8 23 -11 42 -7 42 5 0 25 -49 45 -110 20 -60 42 -110 48 -110 18 0 897
294 897 300 0 3 -109 332 -242 732 l-243 727 -453 -150z m535 -624 c101 -302
186 -557 188 -567 5 -13 -43 -32 -286 -113 -160 -54 -294 -93 -299 -89 -10 11
-381 1126 -376 1131 9 9 563 191 575 190 10 -1 76 -187 198 -552z m-2329 424
c73 -7 130 -15 126 -18 -3 -3 -140 -33 -305 -67 -165 -34 -302 -64 -304 -66
-5 -5 -132 -619 -137 -663 l-3 -30 95 -22 c125 -28 213 -29 285 -2 103 38 187
122 222 219 20 56 20 56 145 66 l87 7 57 -52 c108 -99 265 -171 406 -187 55
-6 113 -32 481 -216 317 -159 420 -215 429 -233 12 -27 5 -67 -18 -89 -39 -40
-54 -35 -353 115 -157 79 -289 145 -292 146 -3 2 -21 -39 -40 -90 l-35 -94
199 -99 c110 -55 208 -110 218 -123 36 -45 19 -100 -37 -121 -27 -11 -46 -3
-243 95 -117 58 -215 104 -216 103 -8 -9 -86 -171 -83 -173 2 -1 53 -28 113
-60 61 -32 116 -65 123 -73 19 -24 15 -79 -8 -102 -32 -32 -72 -24 -189 34
l-108 55 -50 -76 -50 -77 30 -42 c22 -32 28 -49 23 -68 -9 -36 -41 -66 -71
-66 -24 0 -185 74 -185 85 0 3 17 38 37 78 31 61 37 82 37 137 1 54 -4 74 -29
118 -46 84 -140 138 -228 130 l-43 -3 23 55 c41 99 27 190 -41 267 -52 59
-104 83 -185 83 -47 0 -75 -6 -112 -24 -48 -25 -48 -25 -55 -4 -10 34 -86 110
-129 129 -93 43 -227 12 -294 -67 -22 -25 -35 -34 -38 -26 -14 37 -74 99 -118
121 -65 34 -160 36 -221 4 -50 -27 -103 -84 -128 -140 -10 -24 -22 -43 -26
-43 -4 0 -15 18 -25 39 l-17 39 148 446 c82 245 153 445 159 443 5 -2 161 47
345 110 l335 113 80 -4 c44 -3 140 -10 213 -17z m583 -269 l362 -80 226 75
c125 41 231 75 237 75 7 0 272 -776 278 -814 0 -5 -21 -16 -49 -26 l-50 -17
-407 203 c-347 174 -415 204 -452 204 -56 0 -185 40 -251 79 -28 16 -86 62
-129 102 l-78 73 -205 -22 c-113 -12 -208 -24 -211 -27 -3 -2 -11 -37 -19 -77
-16 -89 -51 -142 -112 -175 -41 -21 -128 -32 -143 -18 -5 5 76 413 83 419 8 7
497 104 526 105 18 1 195 -35 394 -79z m-2078 -792 c23 -7 37 -17 37 -28 0
-27 -46 -155 -56 -155 -5 0 -46 13 -91 28 l-81 28 24 72 c13 40 26 77 29 84 3
9 15 9 52 -2 26 -8 65 -20 86 -27z m547 -78 c17 0 50 -44 50 -67 0 -32 -75
-179 -95 -187 -32 -12 -75 -6 -95 14 -30 30 -24 76 18 155 36 68 72 100 100
90 8 -3 18 -5 22 -5z m485 -55 c14 -13 25 -35 25 -48 0 -12 -36 -93 -79 -178
-64 -123 -85 -156 -108 -165 -48 -20 -102 14 -103 64 0 27 146 322 169 339 26
20 70 15 96 -12z m400 -120 c14 -13 25 -33 25 -45 0 -31 -187 -398 -209 -410
-50 -26 -111 9 -111 66 0 38 155 359 190 394 28 28 75 26 105 -5z m243 -391
c45 -31 46 -59 5 -146 -20 -44 -46 -86 -57 -94 -44 -30 -108 -8 -120 42 -5 19
3 48 30 106 48 101 90 129 142 92z"/>
<path d="M4378 2578 l-56 -19 25 -77 c14 -42 27 -78 28 -79 2 -4 99 29 107 36
7 6 -29 140 -41 152 -3 4 -31 -2 -63 -13z"/>
</g>
</svg>
